<?xml version="1.0" standalone="no"?>
<!DOCTYPE svg PUBLIC "-//W3C//DTD SVG 20010904//EN"
 "http://www.w3.org/TR/2001/REC-SVG-20010904/DTD/svg10.dtd">
<svg version="1.0" xmlns="http://www.w3.org/2000/svg"
 width="260.000000pt" height="260.000000pt" viewBox="0 0 260.000000 260.000000"
 preserveAspectRatio="xMidYMid meet">
<metadata>
Created by potrace 1.11, written by Peter Selinger 2001-2013
</metadata>
<g transform="translate(0.000000,260.000000) scale(0.100000,-0.100000)"
fill="#000000" stroke="none">
<path d="M1315 2503 c-68 -10 -141 -12 -228 -9 -100 5 -134 3 -155 -8 -16 -8
-59 -24 -97 -37 -196 -62 -272 -141 -410 -426 -83 -172 -134 -252 -195 -307
-40 -36 -131 -86 -157 -86 -21 0 -33 -35 -49 -142 -18 -114 -14 -315 6 -426
12 -63 13 -63 89 -121 91 -69 168 -160 251 -296 48 -80 120 -233 153 -325 3
-8 18 -33 35 -56 33 -45 87 -75 232 -130 52 -20 113 -46 136 -59 70 -41 189
-60 374 -60 91 0 177 3 192 7 l26 8 -5 93 c-4 63 -2 100 6 116 19 34 71 61
118 61 52 0 71 -23 80 -98 9 -77 11 -78 89 -52 174 57 297 131 415 249 114
115 178 218 233 371 50 138 57 182 38 250 -16 56 -21 61 -90 110 -75 52 -112
98 -112 137 0 34 47 81 114 115 33 17 64 35 67 40 12 18 32 216 25 244 -4 16
-30 73 -57 127 -27 55 -49 109 -49 121 -1 66 -77 155 -150 177 -36 11 -45 20
-76 80 -45 84 -125 163 -183 179 -57 15 -132 -7 -202 -60 -29 -22 -57 -40 -61
-40 -3 0 -49 45 -100 100 -75 81 -187 175 -200 169 -2 -1 -48 -8 -103 -16z
m-89 -292 c34 -21 78 -74 88 -106 3 -11 25 -29 48 -40 l43 -20 3 -63 c7 -138
-44 -222 -146 -242 -108 -21 -137 -29 -259 -72 l-123 -43 45 -55 c24 -29 42
-57 40 -61 -3 -4 -2 -28 1 -53 l7 -46 53 0 54 0 0 -42 c-1 -56 -29 -117 -70
-151 -36 -31 -39 -22 31 -103 l35 -40 59 53 c53 49 62 53 107 53 l48 0 0 -122
c0 -68 3 -140 6 -160 6 -36 8 -37 60 -44 l54 -6 -5 -37 c-2 -20 -7 -79 -10
-131 l-6 -95 -48 -50 c-26 -27 -69 -76 -95 -107 -74 -88 -173 -128 -249 -99
-16 6 -38 36 -65 88 -61 118 -75 177 -76 328 -2 123 -3 133 -29 177 -26 45
-87 102 -134 127 -18 9 -37 8 -87 -5 l-65 -16 -48 28 c-119 69 -173 135 -173
213 0 90 54 159 222 287 l97 74 116 0 115 0 -1 28 c0 15 -4 77 -9 137 -5 61
-6 169 -3 241 l6 130 76 17 c42 9 99 23 126 31 70 20 124 19 161 -3z m587
-251 c146 -15 223 -40 281 -91 25 -22 46 -45 46 -50 0 -6 9 -28 19 -49 l19
-40 -74 -152 -74 -153 -38 -3 c-22 -2 -69 4 -106 12 -223 52 -344 211 -363
480 l-6 81 29 10 c22 8 43 5 94 -12 36 -11 114 -26 173 -33z m154 -836 c77
-39 86 -52 86 -119 0 -18 14 -51 34 -80 60 -91 42 -138 -76 -192 -166 -77
-240 -89 -309 -54 -68 35 -162 156 -162 209 0 10 10 28 23 40 20 18 44 27 140
47 15 3 27 12 27 20 0 49 25 122 52 148 25 26 34 29 70 24 23 -3 75 -22 115
-43z"/>
</g>
</svg>
